<svg width="24" height="24" viewBox="0 0 24 24" fill="none" xmlns="http://www.w3.org/2000/svg">
<path d="M23.781 12.5306L21.531 14.7806C21.4614 14.8504 21.3787 14.9057 21.2876 14.9434C21.1966 14.9812 21.099 15.0006 21.0004 15.0006C20.9019 15.0006 20.8043 14.9812 20.7132 14.9434C20.6222 14.9057 20.5394 14.8504 20.4698 14.7806L18.2198 12.5306C18.0791 12.3899 18 12.199 18 12C18 11.801 18.0791 11.6101 18.2198 11.4694C18.3605 11.3286 18.5514 11.2496 18.7504 11.2496C18.9494 11.2496 19.1403 11.3286 19.281 11.4694L20.2504 12.4397V12C20.2513 10.2531 19.6976 8.551 18.6691 7.13892C17.6407 5.72684 16.1906 4.67767 14.5276 4.14254C12.8647 3.60742 11.0748 3.61396 9.41586 4.16123C7.75689 4.7085 6.31446 5.76825 5.29635 7.18781C5.18024 7.34943 5.00468 7.4583 4.80829 7.49047C4.61191 7.52265 4.41078 7.47549 4.24917 7.35938C4.08755 7.24326 3.97868 7.0677 3.94651 6.87131C3.91433 6.67493 3.96149 6.4738 4.0776 6.31219C5.28087 4.63455 6.98562 3.38217 8.94625 2.73545C10.9069 2.08874 13.0222 2.08108 14.9875 2.71358C16.9527 3.34609 18.6665 4.58609 19.8819 6.25497C21.0973 7.92386 21.7515 9.93546 21.7504 12V12.4397L22.7198 11.4694C22.8605 11.3286 23.0514 11.2496 23.2504 11.2496C23.4494 11.2496 23.6403 11.3286 23.781 11.4694C23.9218 11.6101 24.0008 11.801 24.0008 12C24.0008 12.199 23.9218 12.3899 23.781 12.5306ZM19.9204 17.6869C18.7168 19.3632 17.0123 20.6145 15.0523 21.2604C13.0923 21.9064 10.9779 21.9138 9.01338 21.2816C7.04891 20.6493 5.3357 19.41 4.12039 17.7421C2.90507 16.0742 2.25033 14.0637 2.25042 12V11.5603L1.28104 12.5306C1.14031 12.6714 0.94944 12.7504 0.750417 12.7504C0.551394 12.7504 0.360523 12.6714 0.219792 12.5306C0.0790616 12.3899 0 12.199 0 12C0 11.801 0.0790616 11.6101 0.219792 11.4694L2.46979 9.21938C2.53945 9.14964 2.62216 9.09432 2.71321 9.05658C2.80426 9.01884 2.90186 8.99941 3.00042 8.99941C3.09898 8.99941 3.19657 9.01884 3.28762 9.05658C3.37867 9.09432 3.46139 9.14964 3.53104 9.21938L5.78104 11.4694C5.92177 11.6101 6.00083 11.801 6.00083 12C6.00083 12.199 5.92177 12.3899 5.78104 12.5306C5.64031 12.6714 5.44944 12.7504 5.25042 12.7504C5.05139 12.7504 4.86052 12.6714 4.71979 12.5306L3.75042 11.5603V12C3.74864 14.0196 4.4909 15.969 5.83542 17.4759C6.67188 16.2638 7.84806 15.3261 9.21604 14.7806C8.48122 14.2019 7.94501 13.4085 7.68198 12.5108C7.41896 11.6132 7.4422 10.6559 7.74847 9.77208C8.05473 8.88825 8.62881 8.12183 9.39085 7.5794C10.1529 7.03696 11.065 6.74548 12.0004 6.74548C12.9358 6.74548 13.8479 7.03696 14.61 7.5794C15.372 8.12183 15.9461 8.88825 16.2524 9.77208C16.5586 10.6559 16.5819 11.6132 16.3189 12.5108C16.0558 13.4085 15.5196 14.2019 14.7848 14.7806C16.154 15.3262 17.331 16.265 18.1673 17.4788C18.3569 17.2658 18.5356 17.0433 18.7026 16.8122C18.8187 16.6506 18.9943 16.5417 19.1907 16.5095C19.3871 16.4774 19.5882 16.5245 19.7498 16.6406C19.9114 16.7567 20.0203 16.9323 20.0525 17.1287C20.0846 17.3251 20.0375 17.5262 19.9214 17.6878L19.9204 17.6869ZM12.0004 14.25C12.5938 14.25 13.1738 14.0741 13.6671 13.7444C14.1605 13.4148 14.545 12.9462 14.7721 12.3981C14.9991 11.8499 15.0585 11.2467 14.9428 10.6647C14.827 10.0828 14.5413 9.54824 14.1217 9.12868C13.7022 8.70912 13.1676 8.4234 12.5857 8.30764C12.0037 8.19189 11.4005 8.2513 10.8524 8.47836C10.3042 8.70542 9.83565 9.08994 9.50601 9.58329C9.17636 10.0766 9.00042 10.6567 9.00042 11.25C9.00042 12.0457 9.31649 12.8087 9.8791 13.3713C10.4417 13.9339 11.2048 14.25 12.0004 14.25ZM12.0004 20.25C13.8308 20.2476 15.6087 19.638 17.0554 18.5166C16.5129 17.668 15.7654 16.9697 14.882 16.486C13.9986 16.0023 13.0076 15.7487 12.0004 15.7487C10.9932 15.7487 10.0023 16.0023 9.11884 16.486C8.23542 16.9697 7.48798 17.668 6.94542 18.5166C8.38994 19.642 10.1693 20.2521 12.0004 20.25Z" fill="#1E1E1E"/>
</svg>
