<svg width="16" height="16" viewBox="0 0 16 16" fill="none" xmlns="http://www.w3.org/2000/svg">
<path d="M15.5 7H13.755L10.7863 2.91187C10.6963 2.78836 10.5792 2.6871 10.444 2.61588C10.3088 2.54465 10.1591 2.50536 10.0064 2.50101C9.85361 2.49667 9.7019 2.52739 9.56288 2.59081C9.42385 2.65423 9.30122 2.74867 9.20438 2.86687L8.40125 3.79812L8.38875 3.8125C8.34221 3.87096 8.28309 3.91817 8.21579 3.95062C8.14848 3.98307 8.07472 3.99993 8 3.99993C7.92528 3.99993 7.85152 3.98307 7.78421 3.95062C7.71691 3.91817 7.65779 3.87096 7.61125 3.8125L7.59875 3.79812L6.79563 2.86687C6.69879 2.74867 6.57614 2.65423 6.43712 2.59081C6.2981 2.52739 6.14639 2.49667 5.99364 2.50101C5.84089 2.50536 5.69118 2.54465 5.55598 2.61588C5.42079 2.6871 5.30371 2.78836 5.21375 2.91187L2.245 7H0.5C0.367392 7 0.240215 7.05268 0.146447 7.14645C0.0526784 7.24021 0 7.36739 0 7.5C0 7.63261 0.0526784 7.75978 0.146447 7.85355C0.240215 7.94732 0.367392 8 0.5 8H15.5C15.6326 8 15.7598 7.94732 15.8536 7.85355C15.9473 7.75978 16 7.63261 16 7.5C16 7.36739 15.9473 7.24021 15.8536 7.14645C15.7598 7.05268 15.6326 7 15.5 7ZM6.02125 3.5L6.03312 3.51437L6.83625 4.445C6.9769 4.61795 7.15434 4.75738 7.35564 4.85314C7.55695 4.9489 7.77707 4.99859 8 4.99859C8.22293 4.99859 8.44305 4.9489 8.64436 4.85314C8.84566 4.75738 9.0231 4.61795 9.16375 4.445L9.96688 3.51437C9.97062 3.50937 9.97312 3.505 9.9775 3.5L12.5188 7H3.48062L6.02125 3.5ZM11.25 9C10.6966 9.00011 10.1627 9.20414 9.75028 9.5731C9.33785 9.94205 9.07586 10.4501 9.01437 11H6.98562C6.924 10.4506 6.66222 9.94304 6.25026 9.5743C5.8383 9.20556 5.30499 9.0014 4.7521 9.0008C4.19921 9.0002 3.66546 9.20319 3.25269 9.57103C2.83993 9.93887 2.57705 10.4458 2.51422 10.9951C2.45139 11.5444 2.59302 12.0976 2.91207 12.5492C3.23112 13.0007 3.70525 13.319 4.244 13.4432C4.78274 13.5675 5.34837 13.489 5.83296 13.2228C6.31754 12.9566 6.68715 12.5213 6.87125 12H9.12875C9.26625 12.3889 9.50802 12.7325 9.82763 12.9933C10.1472 13.2541 10.5324 13.422 10.941 13.4787C11.3496 13.5353 11.7659 13.4786 12.1444 13.3146C12.5229 13.1507 12.8491 12.8858 13.0872 12.549C13.3254 12.2122 13.4663 11.8164 13.4947 11.4049C13.5231 10.9934 13.4378 10.582 13.2482 10.2156C13.0586 9.8493 12.7719 9.54216 12.4195 9.32776C12.0671 9.11337 11.6625 8.99999 11.25 9ZM4.75 12.5C4.50277 12.5 4.2611 12.4267 4.05554 12.2893C3.84998 12.152 3.68976 11.9568 3.59515 11.7284C3.50054 11.4999 3.47579 11.2486 3.52402 11.0061C3.57225 10.7637 3.6913 10.5409 3.86612 10.3661C4.04093 10.1913 4.26366 10.0722 4.50614 10.024C4.74861 9.97579 4.99995 10.0005 5.22835 10.0952C5.45676 10.1898 5.65199 10.35 5.78934 10.5555C5.92669 10.7611 6 11.0028 6 11.25C6 11.4142 5.96767 11.5767 5.90485 11.7284C5.84203 11.88 5.74996 12.0178 5.63388 12.1339C5.51781 12.25 5.38001 12.342 5.22835 12.4048C5.0767 12.4677 4.91415 12.5 4.75 12.5ZM11.25 12.5C11.0028 12.5 10.7611 12.4267 10.5555 12.2893C10.35 12.152 10.1898 11.9568 10.0952 11.7284C10.0005 11.4999 9.97579 11.2486 10.024 11.0061C10.0722 10.7637 10.1913 10.5409 10.3661 10.3661C10.5409 10.1913 10.7637 10.0722 11.0061 10.024C11.2486 9.97579 11.4999 10.0005 11.7284 10.0952C11.9568 10.1898 12.152 10.35 12.2893 10.5555C12.4267 10.7611 12.5 11.0028 12.5 11.25C12.5 11.5815 12.3683 11.8995 12.1339 12.1339C11.8995 12.3683 11.5815 12.5 11.25 12.5Z" fill="#3D3D3D"/>
</svg>
