<svg width="190" height="48" viewBox="0 0 190 48" fill="none" xmlns="http://www.w3.org/2000/svg">
<g clip-path="url(#clip0_1467_9566)">
<path d="M57.4196 7.35864V30.187L43.7226 18.2107V30.2648H38.9408V7.4797L52.5253 19.5251V7.35864H57.4196Z" fill="#001777"/>
<path d="M78.2677 26.0364V30.2648H61.4232V7.35864H78.2677V11.5784H66.2569V16.7061H75.1202V20.8395H66.2569V26.0277H78.2677V26.0364Z" fill="#001777"/>
<path d="M91.3594 30.5848C89.8187 30.5959 88.2928 30.2836 86.8802 29.6682C85.5106 29.0715 84.2665 28.2206 83.2139 27.1606C81.0402 24.9528 79.8279 21.9749 79.8415 18.8766C79.8302 15.7814 81.0423 12.807 83.2139 10.6014C84.2665 9.54131 85.5106 8.69041 86.8802 8.09372C88.2961 7.48908 89.8198 7.17737 91.3594 7.17737C92.899 7.17737 94.4227 7.48908 95.8386 8.09372C97.2095 8.68818 98.4539 9.53936 99.505 10.6014C101.691 12.8018 102.921 15.7751 102.929 18.8766C102.914 21.9861 101.671 24.9636 99.4704 27.1606C98.4193 28.2226 97.1749 29.0737 95.804 29.6682C94.4022 30.2789 92.8885 30.591 91.3594 30.5848ZM91.3594 12.0022C90.4663 11.9933 89.5817 12.1761 88.7653 12.5383C87.9794 12.8924 87.2689 13.3944 86.6727 14.017C86.07 14.6598 85.5895 15.407 85.2546 16.222C84.5627 17.9331 84.5627 19.8461 85.2546 21.5572C85.5919 22.3632 86.0723 23.1015 86.6727 23.7363C87.2663 24.3641 87.9772 24.8694 88.7653 25.2236C89.5753 25.5774 90.4496 25.76 91.3335 25.76C92.2173 25.76 93.0917 25.5774 93.9017 25.2236C94.6972 24.8736 95.4146 24.3679 96.0116 23.7363C96.6148 23.1038 97.0957 22.365 97.4297 21.5572C98.1326 19.8483 98.1326 17.9309 97.4297 16.222C97.0981 15.4052 96.6172 14.6574 96.0116 14.017C95.4169 13.3926 94.7061 12.8903 93.919 12.5383C93.1132 12.1809 92.2409 11.9982 91.3594 12.0022Z" fill="#001777"/>
<path d="M115.39 18.8506L124.893 30.2648H119.117L112.519 22.2835L110.322 24.9468V30.2648H105.887V7.35864H110.322V18.0205L119.186 7.35864H124.953L115.39 18.8506Z" fill="#001777"/>
<path d="M141.4 30.2648L136.93 23.2607C136.454 23.2607 135.935 23.2607 135.364 23.2607H132.027V30.2648H127.202V7.35869H138.019C139.036 7.35193 140.044 7.55151 140.982 7.94537C141.92 8.33923 142.768 8.91918 143.475 9.65017C144.905 11.1717 145.697 13.1831 145.689 15.2708C145.734 16.6266 145.37 17.9647 144.643 19.1101C143.905 20.2027 142.952 21.1327 141.841 21.8426L147.462 30.2648H141.4ZM132.027 19.0236H134.543H136.523C137.02 19.0327 137.516 19.0125 138.01 18.9631C138.418 18.9278 138.814 18.8108 139.175 18.6191C139.536 18.4275 139.854 18.1651 140.112 17.8476C140.669 17.1002 140.956 16.1854 140.925 15.2535C140.971 14.362 140.681 13.4855 140.112 12.7977C139.563 12.1977 138.818 11.8142 138.01 11.7168C137.656 11.7168 137.146 11.6563 136.489 11.6476C135.831 11.639 135.166 11.6476 134.508 11.6476H132.027V19.0236Z" fill="#001777"/>
<path d="M167.065 26.0364V30.2648H150.22V7.35864H167.065V11.5784H155.054V16.7061H163.917V20.8395H155.054V26.0277H167.065V26.0364Z" fill="#001777"/>
<path d="M179.024 7.26359C180.431 7.42092 181.797 7.83722 183.053 8.49148C184.293 9.12185 185.407 9.97478 186.339 11.0078C187.274 12.0529 188.02 13.2525 188.544 14.5531C189.34 16.535 189.563 18.7008 189.187 20.8032C188.81 22.9056 187.851 24.8599 186.417 26.4428C185.484 27.4647 184.377 28.3136 183.148 28.9505C181.857 29.6178 180.463 30.0622 179.024 30.2649C178.183 30.3736 177.337 30.4342 176.49 30.4464C175.504 30.4464 174.562 30.4464 173.645 30.4464C172.582 30.4464 171.492 30.36 170.377 30.2994V7.29818C171.535 7.23765 172.668 7.19442 173.766 7.17712C174.7 7.17712 175.651 7.17712 176.62 7.17712C177.588 7.17712 178.384 7.20306 179.024 7.26359ZM179.024 25.6041C179.773 25.4837 180.491 25.2131 181.134 24.8085C181.784 24.4088 182.353 23.8894 182.811 23.278C183.277 22.6484 183.644 21.9515 183.901 21.2114C184.164 20.4373 184.299 19.6252 184.298 18.8075C184.301 18.0022 184.161 17.2028 183.883 16.4468C183.617 15.7104 183.235 15.0214 182.751 14.4061C182.276 13.8166 181.706 13.3109 181.064 12.9101C180.441 12.5157 179.749 12.2429 179.024 12.106C178.658 12.0399 178.288 12.0052 177.917 12.0022C177.484 12.0022 177.052 12.0022 176.663 12.0022C176.274 12.0022 175.712 12.0541 175.219 12.0887V25.6041C175.651 25.6473 176.084 25.6733 176.542 25.6992C177 25.7251 177.337 25.6992 177.761 25.6992C178.184 25.694 178.605 25.6622 179.024 25.6041Z" fill="#001777"/>
<path d="M41.0161 39.8977H43.0308C45.2445 39.8977 46.4897 40.9094 46.4897 42.7599C46.4897 44.6104 45.2531 45.6307 43.0308 45.6307H42.2699V47.8963H41.0161V39.8977ZM42.9876 44.5325C44.5614 44.5325 45.1926 43.9791 45.1926 42.8031C45.1926 41.6271 44.5441 41.0737 42.9876 41.0737H42.2699V44.5325H42.9876Z" fill="#FF9700"/>
<path d="M52.7761 43.9013C52.771 43.0845 53.0085 42.2845 53.4586 41.6028C53.9087 40.9211 54.5511 40.3884 55.3043 40.0722C56.0575 39.756 56.8876 39.6706 57.6894 39.8269C58.4912 39.9831 59.2286 40.3738 59.808 40.9496C60.3875 41.5254 60.7829 42.2603 60.9442 43.0611C61.1054 43.8619 61.0253 44.6926 60.7139 45.4478C60.4025 46.203 59.8738 46.8487 59.195 47.3031C58.5161 47.7575 57.7176 48 56.9008 48.0001C56.3581 48.0117 55.8186 47.9139 55.3146 47.7124C54.8106 47.5109 54.3524 47.2098 53.9674 46.8272C53.5824 46.4446 53.2785 45.9883 53.0738 45.4856C52.8691 44.9829 52.7678 44.4441 52.7761 43.9013ZM59.7457 43.9013C59.7202 43.3428 59.5313 42.8041 59.2023 42.352C58.8734 41.8999 58.4188 41.5545 57.8952 41.3585C57.3716 41.1626 56.8019 41.1247 56.257 41.2498C55.712 41.3748 55.2158 41.6571 54.83 42.0617C54.4441 42.4664 54.1857 42.9754 54.0866 43.5257C53.9876 44.0759 54.0524 44.6431 54.273 45.1569C54.4936 45.6706 54.8602 46.1082 55.3274 46.4154C55.7946 46.7225 56.3417 46.8857 56.9008 46.8846C57.2885 46.8899 57.6731 46.8155 58.0308 46.6658C58.3885 46.5162 58.7116 46.2946 58.98 46.0148C59.2485 45.7351 59.4565 45.4031 59.5912 45.0395C59.7259 44.6759 59.7843 44.2885 59.763 43.9013H59.7457Z" fill="#FF9700"/>
<path d="M66.7411 39.8977H68.0469L69.4563 44.1607C69.577 44.5357 69.678 44.9166 69.759 45.3021C69.759 45.3021 69.9579 44.619 70.1481 44.1607L72.0591 39.8372L73.9874 44.1607C74.169 44.6017 74.3592 45.3021 74.3592 45.3021C74.3592 45.3021 74.5235 44.6017 74.6792 44.1607L76.1232 39.8977H77.3338L74.5668 47.9827H74.3938L72.3963 43.2355C72.2703 42.9155 72.1606 42.5894 72.0678 42.2583C72.0678 42.2583 71.8775 42.8463 71.7132 43.2355L69.6812 48H69.5255L66.7411 39.8977Z" fill="#FF9700"/>
<path d="M83.7673 39.8977H88.8518V40.9959H85.0125V43.5122H88.2292V44.5758H85.0125V46.8067H89.0161V47.8963H83.7673V39.8977Z" fill="#FF9700"/>
<path d="M101.624 47.8963H100.188L98.7786 45.5529H97.0492V47.8963H95.804V39.8977H97.8015C100.015 39.8977 101.26 40.9094 101.26 42.7426C101.29 43.2315 101.177 43.7184 100.936 44.1449C100.695 44.5713 100.337 44.9191 99.9027 45.1465L101.624 47.8963ZM97.7928 44.4893C99.3839 44.4893 100.024 43.9273 100.024 42.7599C100.024 41.5925 99.358 41.0305 97.7928 41.0305H97.0924V44.4893H97.7928Z" fill="#FF9700"/>
<path d="M117.785 40.9959H115.692V39.8977H121.088V40.9959H118.987V47.9136H117.75L117.785 40.9959Z" fill="#FF9700"/>
<path d="M127.081 43.9013C127.075 43.0845 127.313 42.2845 127.763 41.6028C128.213 40.9211 128.856 40.3884 129.609 40.0722C130.362 39.756 131.192 39.6706 131.994 39.8269C132.796 39.9831 133.533 40.3738 134.113 40.9496C134.692 41.5254 135.087 42.2603 135.249 43.0611C135.41 43.8619 135.33 44.6926 135.018 45.4478C134.707 46.203 134.178 46.8487 133.499 47.3031C132.821 47.7575 132.022 48 131.205 48.0001C130.663 48.0117 130.123 47.9139 129.619 47.7124C129.115 47.5109 128.657 47.2098 128.272 46.8272C127.887 46.4446 127.583 45.9883 127.378 45.4856C127.174 44.9829 127.072 44.4441 127.081 43.9013ZM134.05 43.9013C134.025 43.3428 133.836 42.8041 133.507 42.352C133.178 41.8999 132.723 41.5545 132.2 41.3585C131.676 41.1626 131.106 41.1247 130.561 41.2498C130.017 41.3748 129.52 41.6571 129.134 42.0617C128.749 42.4664 128.49 42.9754 128.391 43.5257C128.292 44.0759 128.357 44.6431 128.577 45.1569C128.798 45.6706 129.165 46.1082 129.632 46.4154C130.099 46.7225 130.646 46.8857 131.205 46.8846C131.592 46.8887 131.976 46.8134 132.333 46.6632C132.689 46.5131 133.011 46.2913 133.279 46.0116C133.546 45.732 133.754 45.4004 133.888 45.0374C134.022 44.6744 134.08 44.2877 134.059 43.9013H134.05Z" fill="#FF9700"/>
<path d="M152.339 44.9649L149.304 39.889H150.678L152.494 43.1836C152.636 43.449 152.798 43.7034 152.979 43.9445C153.158 43.7043 153.317 43.4498 153.454 43.1836L155.184 39.889H156.463L153.558 44.8957V47.8876H152.313L152.339 44.9649Z" fill="#FF9700"/>
<path d="M162.343 43.9013C162.343 41.506 163.978 39.7766 166.053 39.7766C168.128 39.7766 169.719 41.506 169.719 43.884C169.719 46.2619 168.085 47.9827 166.053 47.9827C164.021 47.9827 162.343 46.2879 162.343 43.9013ZM168.552 43.9013C168.552 42.1719 167.506 40.9094 166.018 40.9094C164.531 40.9094 163.424 42.1978 163.424 43.9013C163.424 45.6048 164.488 46.8845 166.018 46.8845C167.549 46.8845 168.552 45.6048 168.552 43.9013Z" fill="#FF9700"/>
<path d="M176.153 45.086V39.8977H177.407V45.0168C177.407 45.5305 177.611 46.0232 177.974 46.3864C178.337 46.7497 178.83 46.9537 179.344 46.9537C179.857 46.9537 180.35 46.7497 180.713 46.3864C181.076 46.0232 181.281 45.5305 181.281 45.0168V39.8977H182.482V45.086C182.482 47.0316 181.03 48 179.3 48C177.571 48 176.153 47.0316 176.153 45.086Z" fill="#FF9700"/>
<path d="M17.7813 15.9798L8.26088 4.76453L8.25223 8.35307L17.7813 19.6462V15.9798Z" fill="url(#paint0_linear_1467_9566)"/>
<path d="M17.7813 22.6641V19.6462L8.25222 8.35315L8.24358 11.3105L17.7813 22.6641Z" fill="url(#paint1_linear_1467_9566)"/>
<path d="M1.17891 3.89121V29.4952C2.38781 30.1518 3.80357 30.316 5.13064 29.9535C7.21458 29.4001 8.46841 27.8177 8.46841 26.4947V1.47002C8.46841 0.605315 8.24359 0.224843 7.43076 0.0519008C5.98279 -0.070104 4.54023 0.342056 3.37528 1.21061C2.41294 1.75756 1.65657 2.60506 1.22215 3.62315C1.19039 3.70883 1.1757 3.79989 1.17891 3.89121Z" fill="url(#paint2_linear_1467_9566)"/>
<path d="M17.5997 10.3766V37.5457C18.8103 38.1971 20.224 38.361 21.5515 38.004C23.6354 37.4506 24.8892 35.8682 24.8892 34.5452V8.11102C24.8892 7.24631 24.6644 6.86583 23.8516 6.69289C22.4036 6.57089 20.961 6.98305 19.7961 7.8516C18.7782 8.39428 17.9962 9.29329 17.5997 10.3766Z" fill="url(#paint3_linear_1467_9566)"/>
<path d="M19.7961 7.8515C18.7652 8.41091 17.9814 9.33655 17.5997 10.4456V37.5456C18.771 38.1801 20.1366 38.3558 21.4304 38.0385V7.03003C20.8576 7.24421 20.3097 7.51963 19.7961 7.8515Z" fill="url(#paint4_linear_1467_9566)"/>
<path d="M3.37527 1.21059C2.4186 1.75407 1.6656 2.59512 1.23079 3.60584C1.19558 3.70282 1.17801 3.80531 1.17891 3.90848V29.4952C2.32344 30.1148 3.65452 30.2962 4.9231 30.0054V0.423706C4.38148 0.632087 3.86279 0.895777 3.37527 1.21059Z" fill="url(#paint5_linear_1467_9566)"/>
<path d="M25.0189 24.7134V28.691C24.6978 29.194 24.266 29.6169 23.7565 29.9276C22.9743 30.4172 22.0654 30.666 21.1428 30.643C20.2203 30.6199 19.3249 30.326 18.5682 29.7979C17.0896 28.717 14.2447 25.4743 8.1917 18.2713C2.70944 11.6476 1.23079 9.65013 0.893555 9.17454V6.42477C0.893555 5.18823 1.17891 5.18823 1.17891 5.18823V5.2747C1.17891 5.44765 3.77304 8.73354 7.87176 13.7316C11.9705 18.7296 14.7894 21.9031 16.3632 23.6584C17.937 25.4138 19.2686 26.4601 20.9548 26.6157C21.5971 26.6825 22.246 26.5949 22.8476 26.3603C23.4493 26.1257 23.9861 25.7508 24.4136 25.2668C24.5849 25.0551 24.7382 24.8295 24.8719 24.5923V24.4712C24.9325 24.454 25.0189 24.5318 25.0189 24.7134Z" fill="url(#paint6_linear_1467_9566)"/>
<path d="M7.8804 20.753C11.0193 24.601 12.5498 26.3909 16.1038 30.2648C17.9975 32.3488 19.1389 32.8589 21.1191 32.98C21.834 33.0143 22.5471 32.8813 23.2016 32.5916C23.8561 32.3019 24.434 31.8634 24.8892 31.3111C24.8892 31.3111 25.0189 31.2333 25.0189 30.9479V28.691C24.6978 29.194 24.266 29.6169 23.7565 29.9276C22.9751 30.4194 22.0658 30.6695 21.1427 30.6464C20.2197 30.6234 19.3241 30.3281 18.5682 29.7979C17.0896 28.717 14.2447 25.4743 8.1917 18.2713C2.70944 11.639 1.23079 9.65015 0.893555 9.17456V12.1059C0.894527 12.1552 0.909525 12.2032 0.93679 12.2443C1.24809 12.6161 3.11586 14.9595 7.8804 20.753Z" fill="url(#paint7_linear_1467_9566)"/>
</g>
<defs>
<linearGradient id="paint0_linear_1467_9566" x1="-5.05565" y1="13.8526" x2="25.2524" y2="11.0942" gradientUnits="userSpaceOnUse">
<stop offset="0.19" stop-color="#FFEAA9"/>
<stop offset="0.44" stop-color="#FFD348"/>
<stop offset="0.68" stop-color="#FF9B1C"/>
<stop offset="1" stop-color="#FF4A00"/>
</linearGradient>
<linearGradient id="paint1_linear_1467_9566" x1="2.01767" y1="-5.53408" x2="14.0977" y2="17.5709" gradientUnits="userSpaceOnUse">
<stop offset="0.19" stop-color="#FFEAA9"/>
<stop offset="0.44" stop-color="#FFD348"/>
<stop offset="0.68" stop-color="#FF9B1C"/>
<stop offset="1" stop-color="#FF4A00"/>
</linearGradient>
<linearGradient id="paint2_linear_1467_9566" x1="3.21098" y1="15.0114" x2="8.52894" y2="15.1584" gradientUnits="userSpaceOnUse">
<stop offset="0.32" stop-color="#FFA200"/>
<stop offset="0.51" stop-color="#FF8E00"/>
<stop offset="0.88" stop-color="#FF5B00"/>
<stop offset="1" stop-color="#FF4A00"/>
</linearGradient>
<linearGradient id="paint3_linear_1467_9566" x1="18.4385" y1="22.5171" x2="25.5291" y2="22.3009" gradientUnits="userSpaceOnUse">
<stop offset="0.43" stop-color="#FFA200"/>
<stop offset="0.55" stop-color="#FF9200"/>
<stop offset="0.77" stop-color="#FF6800"/>
<stop offset="0.91" stop-color="#FF4A00"/>
</linearGradient>
<linearGradient id="paint4_linear_1467_9566" x1="12.8179" y1="12.9101" x2="24.846" y2="29.7546" gradientUnits="userSpaceOnUse">
<stop offset="0.09" stop-color="#FFB816"/>
<stop offset="0.29" stop-color="#FFA200"/>
<stop offset="0.34" stop-color="#FF8D00"/>
<stop offset="0.44" stop-color="#FF7000"/>
<stop offset="0.54" stop-color="#FF5B00"/>
<stop offset="0.64" stop-color="#FF4E00"/>
<stop offset="0.73" stop-color="#FF4A00"/>
<stop offset="1" stop-color="#F03B00"/>
</linearGradient>
<linearGradient id="paint5_linear_1467_9566" x1="3.04668" y1="36.0151" x2="3.04668" y2="0.76959" gradientUnits="userSpaceOnUse">
<stop stop-color="#FFA200"/>
<stop offset="0.02" stop-color="#FFA000"/>
<stop offset="0.31" stop-color="#FF7B00"/>
<stop offset="0.58" stop-color="#FF6000"/>
<stop offset="0.82" stop-color="#FF5000"/>
<stop offset="1" stop-color="#FF4A00"/>
</linearGradient>
<linearGradient id="paint6_linear_1467_9566" x1="0.19314" y1="52.4532" x2="19.7702" y2="-1.59973" gradientUnits="userSpaceOnUse">
<stop offset="0.01" stop-color="#FFD348"/>
<stop offset="0.28" stop-color="#FF4A00"/>
<stop offset="0.57" stop-color="#FFD348"/>
<stop offset="0.68" stop-color="#FF9B1C"/>
<stop offset="1" stop-color="#FF4A00"/>
</linearGradient>
<linearGradient id="paint7_linear_1467_9566" x1="-1.64869" y1="-1.87642" x2="24.9065" y2="38.6698" gradientUnits="userSpaceOnUse">
<stop stop-color="#FFEAA9"/>
<stop offset="0.15" stop-color="#FF4A00"/>
<stop offset="0.37" stop-color="#FFD348"/>
<stop offset="0.58" stop-color="#FF9B1C"/>
<stop offset="0.9" stop-color="#FF4A00"/>
</linearGradient>
<clipPath id="clip0_1467_9566">
<rect width="188.446" height="48" fill="white" transform="translate(0.893555)"/>
</clipPath>
</defs>
</svg>
